<svg xmlns="http://www.w3.org/2000/svg" width="88" height="31" fill="none"><path fill="#514e94" d="M0 0h88v31H0z"/><path fill="#fff" d="M43.928 29.192q-1.424 0-2.448-.416t-1.568-1.296q-.544-.896-.544-2.304v-.144h3.312v.128q0 .768.288 1.088.288.304.848.304t.848-.304q.288-.32.288-1.088v-7.168h3.536v7.184q0 1.409-.544 2.304-.544.88-1.568 1.296t-2.448.416m11.088 0q-1.36 0-2.272-.4-.912-.416-1.44-1.168t-.752-1.792a11.3 11.3 0 0 1-.224-2.336q0-1.28.224-2.32.225-1.056.752-1.808.528-.752 1.44-1.152.912-.416 2.272-.416 1.376 0 2.272.416.912.4 1.424 1.152.528.752.752 1.808.224 1.04.224 2.32t-.224 2.336q-.224 1.04-.752 1.792-.513.751-1.424 1.168-.896.4-2.272.4m0-2.16q.56 0 .896-.288.336-.287.48-.896.144-.608.144-1.568v-1.584q0-.975-.144-1.568-.144-.608-.48-.88-.336-.288-.896-.288t-.896.288q-.336.272-.496.88-.144.592-.144 1.568v1.584q0 .96.144 1.568.16.608.496.896t.896.288M61.32 29v-3.184h3.392V29zm5.312 0V17.4h3.184V29zm9.477.192q-1.44 0-2.512-.48a3.74 3.74 0 0 1-1.648-1.472q-.592-.992-.592-2.464 0-1.488.592-2.464a3.65 3.65 0 0 1 1.648-1.456q1.072-.495 2.512-.496 1.44 0 2.512.496 1.073.48 1.664 1.456.592.976.592 2.464 0 1.472-.592 2.464a3.73 3.73 0 0 1-1.664 1.472q-1.072.48-2.512.48m0-2.16q.561 0 .912-.208.353-.224.512-.624t.16-.96v-.912q0-.56-.16-.96a1.2 1.2 0 0 0-.512-.624q-.351-.224-.912-.224-.56 0-.912.224-.337.209-.496.624-.16.4-.16.96v.912q0 .56.16.96t.496.624q.353.208.912.208M82.413 29V17.4h3.184V29z"/><circle cx="14.5" cy="15.5" r="9.5" fill="#daa520"/><ellipse cx="18" cy="17" fill="#fff" rx="2" ry="5"/><circle cx="31.5" cy="12.5" r="9.5" fill="#daa520"/><path fill="#daa520" d="m24.5 22 3.897 3.75h-7.794z"/><ellipse cx="36" cy="14" fill="#fff" rx="2" ry="5"/></svg>